<mxfile host="app.diagrams.net" modified="2021-01-22T12:26:13.195Z" agent="5.0 (Windows)" etag="tDSrtoMwKW67KE9J4T1O" version="14.2.5" type="github">
  <diagram id="prtHgNgQTEPvFCAcTncT" name="Page-1">
    <mxGraphModel dx="2031" dy="1090" grid="1" gridSize="10" guides="1" tooltips="1" connect="1" arrows="1" fold="1" page="1" pageScale="1" pageWidth="1654" pageHeight="1169" math="0" shadow="0">
      <root>
        <mxCell id="0" />
        <mxCell id="1" parent="0" />
        <mxCell id="RyIgp85BoPHKLJtojsvc-8" value="" style="rounded=0;whiteSpace=wrap;html=1;" vertex="1" parent="1">
          <mxGeometry x="90" y="167.5" width="920" height="35.01" as="geometry" />
        </mxCell>
        <mxCell id="RyIgp85BoPHKLJtojsvc-7" value="ESP LINE EXIT" style="rounded=0;whiteSpace=wrap;html=1;" vertex="1" parent="1">
          <mxGeometry x="10" y="250" width="310" height="20" as="geometry" />
        </mxCell>
        <mxCell id="RyIgp85BoPHKLJtojsvc-10" value="" style="shape=singleArrow;direction=north;whiteSpace=wrap;html=1;" vertex="1" parent="1">
          <mxGeometry x="130" y="216.67000000000002" width="20" height="33.33" as="geometry" />
        </mxCell>
        <mxCell id="RyIgp85BoPHKLJtojsvc-11" value="" style="shape=singleArrow;direction=north;whiteSpace=wrap;html=1;" vertex="1" parent="1">
          <mxGeometry x="205" y="216.67000000000002" width="20" height="33.33" as="geometry" />
        </mxCell>
        <mxCell id="RyIgp85BoPHKLJtojsvc-12" value="" style="shape=singleArrow;direction=north;whiteSpace=wrap;html=1;" vertex="1" parent="1">
          <mxGeometry x="275" y="216.67000000000002" width="20" height="33.33" as="geometry" />
        </mxCell>
        <mxCell id="RyIgp85BoPHKLJtojsvc-13" value="" style="shape=singleArrow;whiteSpace=wrap;html=1;" vertex="1" parent="1">
          <mxGeometry x="320" y="171.66" width="44.45" height="26.67" as="geometry" />
        </mxCell>
        <mxCell id="RyIgp85BoPHKLJtojsvc-14" value="&lt;span lang=&quot;PL&quot;&gt;ESP_DWNCOIL_1&lt;/span&gt;" style="text;html=1;strokeColor=none;fillColor=none;align=center;verticalAlign=middle;whiteSpace=wrap;rounded=0;" vertex="1" parent="1">
          <mxGeometry x="120" y="134.99" width="40" height="20" as="geometry" />
        </mxCell>
        <mxCell id="RyIgp85BoPHKLJtojsvc-15" value="&lt;span lang=&quot;PL&quot;&gt;ESP_DWNCOIL_2&lt;/span&gt;" style="text;html=1;strokeColor=none;fillColor=none;align=center;verticalAlign=middle;whiteSpace=wrap;rounded=0;" vertex="1" parent="1">
          <mxGeometry x="195" y="100" width="40" height="54.99" as="geometry" />
        </mxCell>
        <mxCell id="RyIgp85BoPHKLJtojsvc-16" value="&lt;span lang=&quot;PL&quot;&gt;ESP_DWNCOIL_3&lt;/span&gt;" style="text;html=1;strokeColor=none;fillColor=none;align=center;verticalAlign=middle;whiteSpace=wrap;rounded=0;" vertex="1" parent="1">
          <mxGeometry x="265" y="134.99" width="40" height="20" as="geometry" />
        </mxCell>
        <mxCell id="RyIgp85BoPHKLJtojsvc-36" value="" style="rounded=0;whiteSpace=wrap;html=1;" vertex="1" parent="1">
          <mxGeometry x="405" y="171.66" width="40" height="148.34" as="geometry" />
        </mxCell>
        <mxCell id="RyIgp85BoPHKLJtojsvc-45" value="&lt;span lang=&quot;PL&quot;&gt;ESP_INSPECT-1-1&lt;/span&gt;" style="text;html=1;strokeColor=none;fillColor=none;align=center;verticalAlign=middle;whiteSpace=wrap;rounded=0;" vertex="1" parent="1">
          <mxGeometry x="490" y="305" width="40" height="20" as="geometry" />
        </mxCell>
        <mxCell id="RyIgp85BoPHKLJtojsvc-46" value="&lt;span lang=&quot;PL&quot;&gt;ESP_MARK_WGT-1-1&lt;/span&gt;" style="text;html=1;strokeColor=none;fillColor=none;align=center;verticalAlign=middle;whiteSpace=wrap;rounded=0;" vertex="1" parent="1">
          <mxGeometry x="415" y="140" width="40" height="20" as="geometry" />
        </mxCell>
        <mxCell id="RyIgp85BoPHKLJtojsvc-50" value="" style="shape=singleArrow;whiteSpace=wrap;html=1;" vertex="1" parent="1">
          <mxGeometry x="490" y="167.51" width="58.33" height="35" as="geometry" />
        </mxCell>
        <mxCell id="RyIgp85BoPHKLJtojsvc-51" value="&lt;span lang=&quot;PL&quot;&gt;ESP_SAD1&lt;/span&gt;" style="text;html=1;strokeColor=none;fillColor=none;align=center;verticalAlign=middle;whiteSpace=wrap;rounded=0;" vertex="1" parent="1">
          <mxGeometry x="1100" y="120.01000000000002" width="40" height="20" as="geometry" />
        </mxCell>
        <mxCell id="RyIgp85BoPHKLJtojsvc-52" value="3" style="text;html=1;strokeColor=none;fillColor=none;align=center;verticalAlign=middle;whiteSpace=wrap;rounded=0;" vertex="1" parent="1">
          <mxGeometry x="1100" y="140.01" width="40" height="20" as="geometry" />
        </mxCell>
        <mxCell id="RyIgp85BoPHKLJtojsvc-53" value="2" style="text;html=1;strokeColor=none;fillColor=none;align=center;verticalAlign=middle;whiteSpace=wrap;rounded=0;" vertex="1" parent="1">
          <mxGeometry x="1060" y="140" width="40" height="20" as="geometry" />
        </mxCell>
        <mxCell id="RyIgp85BoPHKLJtojsvc-54" value="1" style="text;html=1;strokeColor=none;fillColor=none;align=center;verticalAlign=middle;whiteSpace=wrap;rounded=0;" vertex="1" parent="1">
          <mxGeometry x="1020" y="140" width="40" height="20" as="geometry" />
        </mxCell>
        <mxCell id="RyIgp85BoPHKLJtojsvc-55" value="4" style="text;html=1;strokeColor=none;fillColor=none;align=center;verticalAlign=middle;whiteSpace=wrap;rounded=0;" vertex="1" parent="1">
          <mxGeometry x="1140" y="140.01" width="40" height="20" as="geometry" />
        </mxCell>
        <mxCell id="RyIgp85BoPHKLJtojsvc-56" value="5" style="text;html=1;strokeColor=none;fillColor=none;align=center;verticalAlign=middle;whiteSpace=wrap;rounded=0;" vertex="1" parent="1">
          <mxGeometry x="1180" y="140" width="40" height="20" as="geometry" />
        </mxCell>
        <mxCell id="RyIgp85BoPHKLJtojsvc-64" value="TRAIN-1-1" style="rounded=0;whiteSpace=wrap;html=1;" vertex="1" parent="1">
          <mxGeometry x="610" y="245" width="400" height="15" as="geometry" />
        </mxCell>
        <mxCell id="RyIgp85BoPHKLJtojsvc-65" value="TRAIN-1-2" style="rounded=0;whiteSpace=wrap;html=1;" vertex="1" parent="1">
          <mxGeometry x="610" y="275" width="400" height="15" as="geometry" />
        </mxCell>
        <mxCell id="RyIgp85BoPHKLJtojsvc-66" value="TRAIN-1-3" style="rounded=0;whiteSpace=wrap;html=1;" vertex="1" parent="1">
          <mxGeometry x="610" y="300" width="400" height="15" as="geometry" />
        </mxCell>
        <mxCell id="RyIgp85BoPHKLJtojsvc-69" value="" style="shape=doubleArrow;direction=south;whiteSpace=wrap;html=1;" vertex="1" parent="1">
          <mxGeometry x="412.5" y="228.33999999999997" width="25" height="41.66" as="geometry" />
        </mxCell>
        <mxCell id="RyIgp85BoPHKLJtojsvc-70" value="" style="shape=singleArrow;direction=south;whiteSpace=wrap;html=1;" vertex="1" parent="1">
          <mxGeometry x="796.5" y="183.33999999999997" width="27" height="45" as="geometry" />
        </mxCell>
        <mxCell id="RyIgp85BoPHKLJtojsvc-71" value="" style="shape=singleArrow;whiteSpace=wrap;html=1;" vertex="1" parent="1">
          <mxGeometry x="970" y="172.99" width="40" height="24" as="geometry" />
        </mxCell>
        <mxCell id="RyIgp85BoPHKLJtojsvc-75" value="" style="group" vertex="1" connectable="0" parent="1">
          <mxGeometry x="115" y="160.01" width="50" height="50" as="geometry" />
        </mxCell>
        <mxCell id="RyIgp85BoPHKLJtojsvc-73" value="" style="ellipse;whiteSpace=wrap;html=1;aspect=fixed;" vertex="1" parent="RyIgp85BoPHKLJtojsvc-75">
          <mxGeometry width="50" height="50" as="geometry" />
        </mxCell>
        <mxCell id="RyIgp85BoPHKLJtojsvc-74" value="" style="ellipse;whiteSpace=wrap;html=1;aspect=fixed;" vertex="1" parent="RyIgp85BoPHKLJtojsvc-75">
          <mxGeometry x="18.75" y="18.72999999999999" width="12.5" height="12.5" as="geometry" />
        </mxCell>
        <mxCell id="RyIgp85BoPHKLJtojsvc-76" value="" style="group" vertex="1" connectable="0" parent="1">
          <mxGeometry x="190" y="160.01" width="50" height="50" as="geometry" />
        </mxCell>
        <mxCell id="RyIgp85BoPHKLJtojsvc-77" value="" style="ellipse;whiteSpace=wrap;html=1;aspect=fixed;" vertex="1" parent="RyIgp85BoPHKLJtojsvc-76">
          <mxGeometry width="50" height="50" as="geometry" />
        </mxCell>
        <mxCell id="RyIgp85BoPHKLJtojsvc-78" value="" style="ellipse;whiteSpace=wrap;html=1;aspect=fixed;" vertex="1" parent="RyIgp85BoPHKLJtojsvc-76">
          <mxGeometry x="18.75" y="18.72999999999999" width="12.5" height="12.5" as="geometry" />
        </mxCell>
        <mxCell id="RyIgp85BoPHKLJtojsvc-80" value="" style="group" vertex="1" connectable="0" parent="1">
          <mxGeometry x="260" y="160" width="50" height="50" as="geometry" />
        </mxCell>
        <mxCell id="RyIgp85BoPHKLJtojsvc-81" value="" style="ellipse;whiteSpace=wrap;html=1;aspect=fixed;" vertex="1" parent="RyIgp85BoPHKLJtojsvc-80">
          <mxGeometry width="50" height="50" as="geometry" />
        </mxCell>
        <mxCell id="RyIgp85BoPHKLJtojsvc-82" value="" style="ellipse;whiteSpace=wrap;html=1;aspect=fixed;" vertex="1" parent="RyIgp85BoPHKLJtojsvc-80">
          <mxGeometry x="18.75" y="18.72999999999999" width="12.5" height="12.5" as="geometry" />
        </mxCell>
        <mxCell id="RyIgp85BoPHKLJtojsvc-83" value="" style="group" vertex="1" connectable="0" parent="1">
          <mxGeometry x="400" y="160" width="50" height="50" as="geometry" />
        </mxCell>
        <mxCell id="RyIgp85BoPHKLJtojsvc-84" value="" style="ellipse;whiteSpace=wrap;html=1;aspect=fixed;" vertex="1" parent="RyIgp85BoPHKLJtojsvc-83">
          <mxGeometry width="50" height="50" as="geometry" />
        </mxCell>
        <mxCell id="RyIgp85BoPHKLJtojsvc-85" value="" style="ellipse;whiteSpace=wrap;html=1;aspect=fixed;" vertex="1" parent="RyIgp85BoPHKLJtojsvc-83">
          <mxGeometry x="18.75" y="18.72999999999999" width="12.5" height="12.5" as="geometry" />
        </mxCell>
        <mxCell id="RyIgp85BoPHKLJtojsvc-86" value="" style="group" vertex="1" connectable="0" parent="1">
          <mxGeometry x="400" y="290" width="50" height="50" as="geometry" />
        </mxCell>
        <mxCell id="RyIgp85BoPHKLJtojsvc-87" value="" style="ellipse;whiteSpace=wrap;html=1;aspect=fixed;" vertex="1" parent="RyIgp85BoPHKLJtojsvc-86">
          <mxGeometry width="50" height="50" as="geometry" />
        </mxCell>
        <mxCell id="RyIgp85BoPHKLJtojsvc-88" value="" style="ellipse;whiteSpace=wrap;html=1;aspect=fixed;" vertex="1" parent="RyIgp85BoPHKLJtojsvc-86">
          <mxGeometry x="18.75" y="18.72999999999999" width="12.5" height="12.5" as="geometry" />
        </mxCell>
        <mxCell id="RyIgp85BoPHKLJtojsvc-89" value="" style="group" vertex="1" connectable="0" parent="1">
          <mxGeometry x="1020" y="160" width="40" height="40" as="geometry" />
        </mxCell>
        <mxCell id="RyIgp85BoPHKLJtojsvc-90" value="" style="ellipse;whiteSpace=wrap;html=1;aspect=fixed;" vertex="1" parent="RyIgp85BoPHKLJtojsvc-89">
          <mxGeometry width="40" height="40" as="geometry" />
        </mxCell>
        <mxCell id="RyIgp85BoPHKLJtojsvc-91" value="" style="ellipse;whiteSpace=wrap;html=1;aspect=fixed;" vertex="1" parent="RyIgp85BoPHKLJtojsvc-89">
          <mxGeometry x="15" y="14.983999999999993" width="10" height="10" as="geometry" />
        </mxCell>
        <mxCell id="RyIgp85BoPHKLJtojsvc-94" value="" style="group" vertex="1" connectable="0" parent="1">
          <mxGeometry x="1060" y="160" width="40" height="40" as="geometry" />
        </mxCell>
        <mxCell id="RyIgp85BoPHKLJtojsvc-95" value="" style="ellipse;whiteSpace=wrap;html=1;aspect=fixed;" vertex="1" parent="RyIgp85BoPHKLJtojsvc-94">
          <mxGeometry width="40" height="40" as="geometry" />
        </mxCell>
        <mxCell id="RyIgp85BoPHKLJtojsvc-96" value="" style="ellipse;whiteSpace=wrap;html=1;aspect=fixed;" vertex="1" parent="RyIgp85BoPHKLJtojsvc-94">
          <mxGeometry x="15" y="14.983999999999993" width="10" height="10" as="geometry" />
        </mxCell>
        <mxCell id="RyIgp85BoPHKLJtojsvc-97" value="" style="group" vertex="1" connectable="0" parent="1">
          <mxGeometry x="1100" y="160" width="40" height="40" as="geometry" />
        </mxCell>
        <mxCell id="RyIgp85BoPHKLJtojsvc-98" value="" style="ellipse;whiteSpace=wrap;html=1;aspect=fixed;" vertex="1" parent="RyIgp85BoPHKLJtojsvc-97">
          <mxGeometry width="40" height="40" as="geometry" />
        </mxCell>
        <mxCell id="RyIgp85BoPHKLJtojsvc-99" value="" style="ellipse;whiteSpace=wrap;html=1;aspect=fixed;" vertex="1" parent="RyIgp85BoPHKLJtojsvc-97">
          <mxGeometry x="15" y="14.983999999999993" width="10" height="10" as="geometry" />
        </mxCell>
        <mxCell id="RyIgp85BoPHKLJtojsvc-100" value="" style="group" vertex="1" connectable="0" parent="1">
          <mxGeometry x="1140" y="160" width="40" height="40" as="geometry" />
        </mxCell>
        <mxCell id="RyIgp85BoPHKLJtojsvc-101" value="" style="ellipse;whiteSpace=wrap;html=1;aspect=fixed;" vertex="1" parent="RyIgp85BoPHKLJtojsvc-100">
          <mxGeometry width="40" height="40" as="geometry" />
        </mxCell>
        <mxCell id="RyIgp85BoPHKLJtojsvc-102" value="" style="ellipse;whiteSpace=wrap;html=1;aspect=fixed;" vertex="1" parent="RyIgp85BoPHKLJtojsvc-100">
          <mxGeometry x="15" y="14.983999999999993" width="10" height="10" as="geometry" />
        </mxCell>
        <mxCell id="RyIgp85BoPHKLJtojsvc-103" value="" style="group" vertex="1" connectable="0" parent="1">
          <mxGeometry x="1180" y="160" width="40" height="40" as="geometry" />
        </mxCell>
        <mxCell id="RyIgp85BoPHKLJtojsvc-104" value="" style="ellipse;whiteSpace=wrap;html=1;aspect=fixed;" vertex="1" parent="RyIgp85BoPHKLJtojsvc-103">
          <mxGeometry width="40" height="40" as="geometry" />
        </mxCell>
        <mxCell id="RyIgp85BoPHKLJtojsvc-105" value="" style="ellipse;whiteSpace=wrap;html=1;aspect=fixed;" vertex="1" parent="RyIgp85BoPHKLJtojsvc-103">
          <mxGeometry x="15" y="14.983999999999993" width="10" height="10" as="geometry" />
        </mxCell>
        <mxCell id="RyIgp85BoPHKLJtojsvc-106" value="&lt;span lang=&quot;PL&quot;&gt;ESP_SAD2&lt;/span&gt;" style="text;html=1;strokeColor=none;fillColor=none;align=center;verticalAlign=middle;whiteSpace=wrap;rounded=0;" vertex="1" parent="1">
          <mxGeometry x="1310" y="122.52000000000002" width="40" height="20" as="geometry" />
        </mxCell>
        <mxCell id="RyIgp85BoPHKLJtojsvc-107" value="3" style="text;html=1;strokeColor=none;fillColor=none;align=center;verticalAlign=middle;whiteSpace=wrap;rounded=0;" vertex="1" parent="1">
          <mxGeometry x="1310" y="142.51999999999998" width="40" height="20" as="geometry" />
        </mxCell>
        <mxCell id="RyIgp85BoPHKLJtojsvc-108" value="2" style="text;html=1;strokeColor=none;fillColor=none;align=center;verticalAlign=middle;whiteSpace=wrap;rounded=0;" vertex="1" parent="1">
          <mxGeometry x="1270" y="142.51" width="40" height="20" as="geometry" />
        </mxCell>
        <mxCell id="RyIgp85BoPHKLJtojsvc-109" value="1" style="text;html=1;strokeColor=none;fillColor=none;align=center;verticalAlign=middle;whiteSpace=wrap;rounded=0;" vertex="1" parent="1">
          <mxGeometry x="1230" y="142.51" width="40" height="20" as="geometry" />
        </mxCell>
        <mxCell id="RyIgp85BoPHKLJtojsvc-110" value="4" style="text;html=1;strokeColor=none;fillColor=none;align=center;verticalAlign=middle;whiteSpace=wrap;rounded=0;" vertex="1" parent="1">
          <mxGeometry x="1350" y="142.51999999999998" width="40" height="20" as="geometry" />
        </mxCell>
        <mxCell id="RyIgp85BoPHKLJtojsvc-111" value="5" style="text;html=1;strokeColor=none;fillColor=none;align=center;verticalAlign=middle;whiteSpace=wrap;rounded=0;" vertex="1" parent="1">
          <mxGeometry x="1390" y="142.51" width="40" height="20" as="geometry" />
        </mxCell>
        <mxCell id="RyIgp85BoPHKLJtojsvc-112" value="" style="group" vertex="1" connectable="0" parent="1">
          <mxGeometry x="1230" y="162.51" width="40" height="40" as="geometry" />
        </mxCell>
        <mxCell id="RyIgp85BoPHKLJtojsvc-113" value="" style="ellipse;whiteSpace=wrap;html=1;aspect=fixed;" vertex="1" parent="RyIgp85BoPHKLJtojsvc-112">
          <mxGeometry width="40" height="40" as="geometry" />
        </mxCell>
        <mxCell id="RyIgp85BoPHKLJtojsvc-114" value="" style="ellipse;whiteSpace=wrap;html=1;aspect=fixed;" vertex="1" parent="RyIgp85BoPHKLJtojsvc-112">
          <mxGeometry x="15" y="14.983999999999993" width="10" height="10" as="geometry" />
        </mxCell>
        <mxCell id="RyIgp85BoPHKLJtojsvc-115" value="" style="group" vertex="1" connectable="0" parent="1">
          <mxGeometry x="1270" y="162.51" width="40" height="40" as="geometry" />
        </mxCell>
        <mxCell id="RyIgp85BoPHKLJtojsvc-116" value="" style="ellipse;whiteSpace=wrap;html=1;aspect=fixed;" vertex="1" parent="RyIgp85BoPHKLJtojsvc-115">
          <mxGeometry width="40" height="40" as="geometry" />
        </mxCell>
        <mxCell id="RyIgp85BoPHKLJtojsvc-117" value="" style="ellipse;whiteSpace=wrap;html=1;aspect=fixed;" vertex="1" parent="RyIgp85BoPHKLJtojsvc-115">
          <mxGeometry x="15" y="14.983999999999993" width="10" height="10" as="geometry" />
        </mxCell>
        <mxCell id="RyIgp85BoPHKLJtojsvc-118" value="" style="group" vertex="1" connectable="0" parent="1">
          <mxGeometry x="1310" y="162.51" width="40" height="40" as="geometry" />
        </mxCell>
        <mxCell id="RyIgp85BoPHKLJtojsvc-119" value="" style="ellipse;whiteSpace=wrap;html=1;aspect=fixed;" vertex="1" parent="RyIgp85BoPHKLJtojsvc-118">
          <mxGeometry width="40" height="40" as="geometry" />
        </mxCell>
        <mxCell id="RyIgp85BoPHKLJtojsvc-120" value="" style="ellipse;whiteSpace=wrap;html=1;aspect=fixed;" vertex="1" parent="RyIgp85BoPHKLJtojsvc-118">
          <mxGeometry x="15" y="14.983999999999993" width="10" height="10" as="geometry" />
        </mxCell>
        <mxCell id="RyIgp85BoPHKLJtojsvc-121" value="" style="group" vertex="1" connectable="0" parent="1">
          <mxGeometry x="1350" y="162.51" width="40" height="40" as="geometry" />
        </mxCell>
        <mxCell id="RyIgp85BoPHKLJtojsvc-122" value="" style="ellipse;whiteSpace=wrap;html=1;aspect=fixed;" vertex="1" parent="RyIgp85BoPHKLJtojsvc-121">
          <mxGeometry width="40" height="40" as="geometry" />
        </mxCell>
        <mxCell id="RyIgp85BoPHKLJtojsvc-123" value="" style="ellipse;whiteSpace=wrap;html=1;aspect=fixed;" vertex="1" parent="RyIgp85BoPHKLJtojsvc-121">
          <mxGeometry x="15" y="14.983999999999993" width="10" height="10" as="geometry" />
        </mxCell>
        <mxCell id="RyIgp85BoPHKLJtojsvc-124" value="" style="group" vertex="1" connectable="0" parent="1">
          <mxGeometry x="1390" y="162.51" width="40" height="40" as="geometry" />
        </mxCell>
        <mxCell id="RyIgp85BoPHKLJtojsvc-125" value="" style="ellipse;whiteSpace=wrap;html=1;aspect=fixed;" vertex="1" parent="RyIgp85BoPHKLJtojsvc-124">
          <mxGeometry width="40" height="40" as="geometry" />
        </mxCell>
        <mxCell id="RyIgp85BoPHKLJtojsvc-126" value="" style="ellipse;whiteSpace=wrap;html=1;aspect=fixed;" vertex="1" parent="RyIgp85BoPHKLJtojsvc-124">
          <mxGeometry x="15" y="14.983999999999993" width="10" height="10" as="geometry" />
        </mxCell>
      </root>
    </mxGraphModel>
  </diagram>
</mxfile>
